<svg height="512" viewBox="0 0 64 64" width="512" xmlns="http://www.w3.org/2000/svg"><g id="Finance-2" data-name="Finance"><path d="m53 9v42a2.006 2.006 0 0 1 -2 2h-46a2.006 2.006 0 0 1 -2-2v-42z" fill="#ffde55"/><path d="m51 9v10a32.094 32.094 0 0 1 -32 32h-16a2.006 2.006 0 0 0 2 2h46a2.006 2.006 0 0 0 2-2v-42z" fill="#e5c84d"/><path d="m35 57a4 4 0 0 0 4 4h18a4 4 0 0 0 4-4v-2h-26z" fill="#006df0"/><path d="m57 19h-18a4 4 0 0 0 -4 4v2h26v-2a4 4 0 0 0 -4-4z" fill="#006df0"/><path d="m53 5a2 2 0 0 0 -2-2h-46a2 2 0 0 0 -2 2v4h50z" fill="#006df0"/><circle cx="18" cy="40" fill="#ed1c24" r="9"/><path d="m35 25h26v30h-26z" fill="#9bc9ff"/><path d="m59 25v16a12 12 0 0 1 -12 12h-12v2h26v-30z" fill="#8cb5e5"/><circle cx="48" cy="40" fill="#ed1c24" r="9"/><path d="m48 31a8.935 8.935 0 0 0 -1 .059 9 9 0 0 1 0 17.882 9 9 0 1 0 1-17.941z" fill="#d51920"/><path d="m18 31a8.935 8.935 0 0 0 -1 .059 9 9 0 0 1 0 17.882 9 9 0 1 0 1-17.941z" fill="#d51920"/><g fill="#231f20"><path d="m48 43c-1.221 0-2-.592-2-1a1 1 0 0 0 -2 0c0 1.421 1.259 2.571 3 2.9v1.1a1 1 0 0 0 2 0v-1.1c1.741-.327 3-1.477 3-2.9 0-1.682-1.757-3-4-3-1.221 0-2-.592-2-1s.779-1 2-1 2 .592 2 1a1 1 0 0 0 2 0c0-1.421-1.259-2.571-3-2.9v-1.1a1 1 0 0 0 -2 0v1.1c-1.741.327-3 1.477-3 2.9 0 1.682 1.757 3 4 3 1.221 0 2 .592 2 1s-.779 1-2 1z"/><path d="m18 37c1.221 0 2 .592 2 1a1 1 0 0 0 2 0c0-1.421-1.259-2.571-3-2.9v-1.1a1 1 0 0 0 -2 0v1.1c-1.741.327-3 1.477-3 2.9 0 1.682 1.757 3 4 3 1.221 0 2 .592 2 1s-.779 1-2 1-2-.592-2-1a1 1 0 0 0 -2 0c0 1.421 1.259 2.571 3 2.9v1.1a1 1 0 0 0 2 0v-1.1c1.741-.327 3-1.477 3-2.9 0-1.682-1.757-3-4-3-1.221 0-2-.592-2-1s.779-1 2-1z"/><path d="m49 23h2a1 1 0 0 0 0-2h-2a1 1 0 0 0 0 2z"/><path d="m45 23h1a1 1 0 0 0 0-2h-1a1 1 0 0 0 0 2z"/><path d="m6 5h2v2h-2z"/><path d="m10 5h2v2h-2z"/><path d="m14 5h2v2h-2z"/><path d="m57 18h-3v-13a3 3 0 0 0 -3-3h-46a3 3 0 0 0 -3 3v46a3 3 0 0 0 3 3h29v3a5.006 5.006 0 0 0 5 5h18a5.006 5.006 0 0 0 5-5v-34a5.006 5.006 0 0 0 -5-5zm3 5v1h-24v-1a3 3 0 0 1 3-3h18a3 3 0 0 1 3 3zm-56-18a1 1 0 0 1 1-1h46a1 1 0 0 1 1 1v3h-48zm1 47a1 1 0 0 1 -1-1v-41h48v8h-13a5.006 5.006 0 0 0 -5 5v9a1 1 0 0 0 2 0v-6h24v28h-24v-5.875a1 1 0 0 0 -2 0v3.875zm52 8h-18a3 3 0 0 1 -3-3v-1h24v1a3 3 0 0 1 -3 3z"/><path d="m50 57h-4a1 1 0 0 0 0 2h4a1 1 0 0 0 0-2z"/><path d="m37 40a1 1 0 0 0 -.293-.707l-4.95-4.95a1 1 0 1 0 -1.414 1.414l4.243 4.243-4.243 4.243a1 1 0 1 0 1.414 1.414l4.95-4.95a1 1 0 0 0 .293-.707z"/><path d="m39.586 40-4.243 4.243a1 1 0 1 0 1.414 1.414l4.95-4.95a1 1 0 0 0 0-1.414l-4.95-4.95a1 1 0 1 0 -1.414 1.414z"/><path d="m42.678 34.027a8 8 0 1 1 .022 11.973 1 1 0 1 0 -1.324 1.5 10 10 0 1 0 -.032-14.961 1 1 0 0 0 1.33 1.493z"/><path d="m9 22h1a1 1 0 0 0 0-2h-1a1 1 0 0 0 0 2z"/><path d="m14 22h17a1 1 0 0 0 0-2h-17a1 1 0 0 0 0 2z"/><path d="m9 18h1a1 1 0 0 0 0-2h-1a1 1 0 0 0 0 2z"/><path d="m14 18h17a1 1 0 0 0 0-2h-17a1 1 0 0 0 0 2z"/><path d="m9 26h1a1 1 0 0 0 0-2h-1a1 1 0 0 0 0 2z"/><path d="m14 26h17a1 1 0 0 0 0-2h-17a1 1 0 0 0 0 2z"/><path d="m18 30a10 10 0 1 0 10 10 10.011 10.011 0 0 0 -10-10zm0 18a8 8 0 1 1 8-8 8.009 8.009 0 0 1 -8 8z"/></g></g></svg>