<svg id="Layer_1" enable-background="new 0 0 256 256" height="512" viewBox="0 0 256 256" width="512" xmlns="http://www.w3.org/2000/svg"><g><path d="m183.728 213.208h-111.522c-1.381 0-2.5-1.119-2.5-2.5v-147.658c0-1.381 1.119-2.5 2.5-2.5h11.611c1.381 0 2.5 1.119 2.5 2.5s-1.119 2.5-2.5 2.5h-9.111v142.658h106.521v-142.658h-9.045c-1.381 0-2.5-1.119-2.5-2.5s1.119-2.5 2.5-2.5h11.545c1.381 0 2.5 1.119 2.5 2.5v147.658c.001 1.381-1.119 2.5-2.499 2.5z" fill="#ebe7f2"/><g fill="#846f75"><path d="m196.426 45.341h-136.852c-1.381 0-2.5 1.119-2.5 2.5v178.054c0 1.381 1.119 2.5 2.5 2.5h136.852c1.381 0 2.5-1.119 2.5-2.5v-178.054c0-1.381-1.119-2.5-2.5-2.5zm-110.109 5h83.365v19.831c0 1.379-1.121 2.5-2.5 2.5h-78.365c-1.379 0-2.5-1.121-2.5-2.5zm107.609 173.054h-131.852v-173.054h19.243v19.831c0 4.136 3.364 7.5 7.5 7.5h78.365c4.136 0 7.5-3.364 7.5-7.5v-19.831h19.243v173.054z"/><path d="m97.611 40.341c1.381 0 2.5-1.119 2.5-2.5v-2.735c0-1.379 1.121-2.5 2.5-2.5h50.777c1.379 0 2.5 1.121 2.5 2.5v2.735c0 1.381 1.119 2.5 2.5 2.5s2.5-1.119 2.5-2.5v-2.735c0-4.136-3.364-7.5-7.5-7.5h-50.777c-4.136 0-7.5 3.364-7.5 7.5v2.735c0 1.381 1.119 2.5 2.5 2.5z"/><path d="m141.125 128.038-18.052 18.052-8.197-8.197c-1.637-1.637-3.813-2.538-6.129-2.538s-4.493.901-6.129 2.538c-1.638 1.637-2.539 3.814-2.539 6.129s.901 4.492 2.539 6.129l14.327 14.326c1.637 1.638 3.813 2.539 6.128 2.539s4.491-.901 6.128-2.539l24.181-24.18c1.638-1.638 2.539-3.814 2.539-6.13 0-2.314-.901-4.492-2.539-6.129-3.38-3.38-8.879-3.378-12.257 0zm8.722 8.723-24.181 24.181c-1.387 1.385-3.799 1.385-5.186 0l-14.327-14.327c-.693-.692-1.074-1.613-1.074-2.593s.382-1.9 1.075-2.594c.691-.692 1.612-1.073 2.593-1.073.979 0 1.9.381 2.593 1.073l9.966 9.965c.977.977 2.559.977 3.535 0l19.819-19.819c1.429-1.43 3.756-1.43 5.187 0 .692.693 1.074 1.614 1.074 2.594s-.381 1.899-1.074 2.593z"/></g><path d="m127.967 189.419c-24.647 0-44.699-20.052-44.699-44.699s20.052-44.7 44.699-44.7 44.699 20.053 44.699 44.7-20.052 44.699-44.699 44.699zm0-84.399c-21.891 0-39.699 17.81-39.699 39.7s17.809 39.699 39.699 39.699 39.699-17.809 39.699-39.699-17.809-39.7-39.699-39.7z" fill="#ed9abc"/></g></svg>