<svg height="496pt" viewBox="0 0 496 496" width="496pt" xmlns="http://www.w3.org/2000/svg"><path d="m488 48h-48v-40c0-4.414062-3.574219-8-8-8h-48c-4.425781 0-8 3.585938-8 8v40h-96v-40c0-4.414062-3.574219-8-8-8h-48c-4.425781 0-8 3.585938-8 8v40h-96v-40c0-4.414062-3.574219-8-8-8h-48c-4.425781 0-8 3.585938-8 8v40h-48c-4.425781 0-8 3.585938-8 8v432c0 4.414062 3.574219 8 8 8h480c4.425781 0 8-3.585938 8-8v-432c0-4.414062-3.574219-8-8-8zm-96-32h32v80h-32zm-160 0h32v80h-32zm-160 0h32v80h-32zm-16 48v40c0 4.414062 3.574219 8 8 8h48c4.425781 0 8-3.585938 8-8v-40h96v40c0 4.414062 3.574219 8 8 8h48c4.425781 0 8-3.585938 8-8v-40h96v40c0 4.414062 3.574219 8 8 8h48c4.425781 0 8-3.585938 8-8v-40h40v64h-464v-64zm-40 416v-336h464v336zm0 0"/><path d="m248 160c-83.816406 0-152 68.183594-152 152s68.183594 152 152 152 152-68.183594 152-152-68.183594-152-152-152zm-8 184v72h-16v-104c0-2.121094-.839844-4.160156-2.34375-5.65625l-79.519531-79.519531c2.574219-3.199219 5.3125-6.257813 8.167969-9.207031l60.039062 60.039062c1.496094 1.503906 3.527344 2.34375 5.65625 2.34375h64c2.128906 0 4.160156-.839844 5.65625-2.34375l60.039062-60.039062c2.855469 2.949218 5.585938 6.007812 8.167969 9.207031l-79.519531 79.519531c-1.503906 1.496094-2.34375 3.535156-2.34375 5.65625v104h-16v-72zm93.960938-137.28125-57.273438 57.28125h-57.375l-57.28125-57.28125c23.449219-19.175781 53.382812-30.71875 85.96875-30.71875s62.519531 11.542969 85.960938 30.71875zm15.550781 195.480469-23.855469-23.855469-11.3125 11.3125 23.855469 23.855469c-24.039063 21.375-55.574219 34.488281-90.199219 34.488281s-66.160156-13.113281-90.199219-34.488281l23.855469-23.855469-11.3125-11.3125-23.855469 23.855469c-19.710937-22.160157-32.242187-50.726563-34.089843-82.199219h31.601562v-16h-31.59375c1.371094-23.375 8.625-45.152344 20.378906-63.910156l75.214844 75.222656v108.6875c0 4.414062 3.574219 8 8 8h64c4.425781 0 8-3.585938 8-8v-108.6875l75.222656-75.222656c11.753906 18.75 19 40.527344 20.378906 63.910156h-31.601562v16h31.59375c-1.839844 31.464844-14.371094 60.039062-34.082031 82.199219zm0 0"/><path d="m248 248c17.648438 0 32-14.351562 32-32s-14.351562-32-32-32-32 14.351562-32 32 14.351562 32 32 32zm0-48c8.824219 0 16 7.175781 16 16s-7.175781 16-16 16-16-7.175781-16-16 7.175781-16 16-16zm0 0"/><path d="m72 160h-32c-4.425781 0-8 3.585938-8 8v32c0 4.414062 3.574219 8 8 8h32c4.425781 0 8-3.585938 8-8v-32c0-4.414062-3.574219-8-8-8zm-8 32h-16v-16h16zm0 0"/><path d="m72 224h-32c-4.425781 0-8 3.585938-8 8v32c0 4.414062 3.574219 8 8 8h32c4.425781 0 8-3.585938 8-8v-32c0-4.414062-3.574219-8-8-8zm-8 32h-16v-16h16zm0 0"/><path d="m72 288h-32c-4.425781 0-8 3.585938-8 8v32c0 4.414062 3.574219 8 8 8h32c4.425781 0 8-3.585938 8-8v-32c0-4.414062-3.574219-8-8-8zm-8 32h-16v-16h16zm0 0"/><path d="m456 288h-32c-4.425781 0-8 3.585938-8 8v32c0 4.414062 3.574219 8 8 8h32c4.425781 0 8-3.585938 8-8v-32c0-4.414062-3.574219-8-8-8zm-8 32h-16v-16h16zm0 0"/><path d="m456 352h-32c-4.425781 0-8 3.585938-8 8v32c0 4.414062 3.574219 8 8 8h32c4.425781 0 8-3.585938 8-8v-32c0-4.414062-3.574219-8-8-8zm-8 32h-16v-16h16zm0 0"/><path d="m456 416h-32c-4.425781 0-8 3.585938-8 8v32c0 4.414062 3.574219 8 8 8h32c4.425781 0 8-3.585938 8-8v-32c0-4.414062-3.574219-8-8-8zm-8 32h-16v-16h16zm0 0"/></svg>